<svg width="739" height="261" viewBox="0 0 739 261" fill="none" xmlns="http://www.w3.org/2000/svg">
<path d="M87.4881 182.101V139.216L61.4258 125.22V104.489H74.6412V118.161L100.703 132.156V182.101H87.4881ZM61.4254 182.101V143.292H74.6403V182.101H61.4254ZM35.3878 148.001L35.3858 96.879L61.4245 82.8994V41H74.6394V89.9593L48.5474 103.969L48.5495 148.001H35.3878ZM113.551 59.4885V41H126.767V59.4885H113.551ZM121.896 73.484H152.129V143.065C152.129 161.067 144.547 177.944 132.279 191.458C119.673 205.343 102.036 215.693 82.5873 220.022H79.542C60.091 215.693 42.4545 205.343 29.8502 191.458C17.5816 177.944 10 161.067 10 143.065V73.484H35.3626V41H48.5775V85.7733H23.215V143.065C23.215 158.043 29.5944 172.166 39.9162 183.536C50.4444 195.134 65.0023 203.86 81.0634 207.761C97.1244 203.86 111.683 195.134 122.212 183.536C132.534 172.167 138.913 158.044 138.913 143.065V85.7733H126.766V148.001H113.551V83.16L100.702 76.26V111.55H87.4873V41H100.702V62.1048L121.896 73.484Z" fill="#3C72FC"/>
<path d="M176.944 54.1484H187.734L203.622 99.5601L219.51 54.1484H230.3L207.955 116H199.289L176.944 54.1484ZM171.125 54.1484H181.872L183.826 98.4131V116H171.125V54.1484ZM225.372 54.1484H236.162V116H223.418V98.4131L225.372 54.1484ZM273.248 64.7261L256.425 116H242.874L265.856 54.1484H274.48L273.248 64.7261ZM287.224 116L270.359 64.7261L269 54.1484H277.708L300.817 116H287.224ZM286.459 92.9756V102.958H253.792V92.9756H286.459ZM347.801 79.3394V89.2798H315.516V79.3394H347.801ZM319.296 54.1484V116H306.552V54.1484H319.296ZM356.892 54.1484V116H344.19V54.1484H356.892ZM381.53 54.1484V116H368.829V54.1484H381.53ZM433.229 106.06V116H402.091V106.06H433.229ZM406.211 54.1484V116H393.467V54.1484H406.211ZM198.779 145.148V207H186.078V145.148H198.779ZM217.811 145.148V155.131H167.344V145.148H217.811ZM266.578 197.06V207H233.656V197.06H266.578ZM237.819 145.148V207H225.075V145.148H237.819ZM262.288 170.339V180.025H233.656V170.339H262.288ZM266.536 145.148V155.131H233.656V145.148H266.536ZM309.866 186.482H322.567C322.313 190.645 321.166 194.341 319.126 197.569C317.116 200.798 314.298 203.318 310.673 205.131C307.076 206.943 302.743 207.85 297.674 207.85C293.709 207.85 290.155 207.17 287.011 205.811C283.868 204.423 281.177 202.44 278.94 199.863C276.731 197.286 275.046 194.171 273.885 190.518C272.724 186.864 272.143 182.772 272.143 178.241V173.95C272.143 169.419 272.738 165.327 273.927 161.673C275.145 157.992 276.873 154.862 279.11 152.285C281.376 149.708 284.08 147.726 287.224 146.338C290.367 144.95 293.879 144.256 297.759 144.256C302.913 144.256 307.26 145.191 310.8 147.06C314.369 148.929 317.13 151.506 319.084 154.792C321.066 158.077 322.256 161.815 322.652 166.006H309.908C309.767 163.514 309.271 161.404 308.421 159.677C307.572 157.921 306.283 156.604 304.556 155.726C302.856 154.82 300.591 154.367 297.759 154.367C295.635 154.367 293.78 154.763 292.194 155.556C290.608 156.349 289.277 157.553 288.201 159.167C287.125 160.781 286.317 162.82 285.779 165.284C285.27 167.72 285.015 170.58 285.015 173.865V178.241C285.015 181.441 285.255 184.259 285.737 186.694C286.218 189.102 286.955 191.141 287.946 192.812C288.965 194.454 290.268 195.7 291.854 196.55C293.468 197.371 295.408 197.782 297.674 197.782C300.336 197.782 302.531 197.357 304.258 196.507C305.986 195.658 307.303 194.397 308.209 192.727C309.144 191.056 309.696 188.974 309.866 186.482ZM372.185 170.339V180.28H339.899V170.339H372.185ZM343.68 145.148V207H330.936V145.148H343.68ZM381.275 145.148V207H368.574V145.148H381.275ZM442.702 145.148V207H429.958L405.107 165.539V207H392.363V145.148H405.107L430.001 186.652V145.148H442.702ZM504.596 174.63V177.561C504.596 182.262 503.959 186.482 502.685 190.22C501.41 193.958 499.612 197.145 497.29 199.778C494.967 202.384 492.192 204.38 488.963 205.768C485.763 207.156 482.209 207.85 478.301 207.85C474.421 207.85 470.867 207.156 467.638 205.768C464.438 204.38 461.663 202.384 459.312 199.778C456.961 197.145 455.135 193.958 453.832 190.22C452.558 186.482 451.92 182.262 451.92 177.561V174.63C451.92 169.9 452.558 165.681 453.832 161.971C455.106 158.232 456.905 155.046 459.227 152.413C461.578 149.779 464.353 147.768 467.553 146.38C470.782 144.993 474.336 144.299 478.216 144.299C482.124 144.299 485.678 144.993 488.878 146.38C492.107 147.768 494.882 149.779 497.205 152.413C499.555 155.046 501.368 158.232 502.642 161.971C503.945 165.681 504.596 169.9 504.596 174.63ZM491.725 177.561V174.545C491.725 171.26 491.427 168.371 490.833 165.879C490.238 163.387 489.36 161.291 488.199 159.592C487.038 157.893 485.622 156.618 483.951 155.769C482.28 154.891 480.368 154.452 478.216 154.452C476.064 154.452 474.152 154.891 472.481 155.769C470.838 156.618 469.437 157.893 468.275 159.592C467.143 161.291 466.279 163.387 465.684 165.879C465.089 168.371 464.792 171.26 464.792 174.545V177.561C464.792 180.818 465.089 183.707 465.684 186.227C466.279 188.719 467.157 190.829 468.318 192.557C469.479 194.256 470.895 195.544 472.566 196.422C474.237 197.3 476.148 197.739 478.301 197.739C480.453 197.739 482.365 197.3 484.036 196.422C485.707 195.544 487.108 194.256 488.241 192.557C489.374 190.829 490.238 188.719 490.833 186.227C491.427 183.707 491.725 180.818 491.725 177.561ZM553.534 197.06V207H522.396V197.06H553.534ZM526.516 145.148V207H513.772V145.148H526.516ZM608.843 174.63V177.561C608.843 182.262 608.206 186.482 606.932 190.22C605.657 193.958 603.859 197.145 601.537 199.778C599.214 202.384 596.439 204.38 593.21 205.768C590.01 207.156 586.456 207.85 582.548 207.85C578.668 207.85 575.114 207.156 571.885 205.768C568.685 204.38 565.91 202.384 563.559 199.778C561.209 197.145 559.382 193.958 558.079 190.22C556.805 186.482 556.168 182.262 556.168 177.561V174.63C556.168 169.9 556.805 165.681 558.079 161.971C559.354 158.232 561.152 155.046 563.474 152.413C565.825 149.779 568.6 147.768 571.8 146.38C575.029 144.993 578.583 144.299 582.463 144.299C586.371 144.299 589.925 144.993 593.126 146.38C596.354 147.768 599.129 149.779 601.452 152.413C603.802 155.046 605.615 158.232 606.889 161.971C608.192 165.681 608.843 169.9 608.843 174.63ZM595.972 177.561V174.545C595.972 171.26 595.674 168.371 595.08 165.879C594.485 163.387 593.607 161.291 592.446 159.592C591.285 157.893 589.869 156.618 588.198 155.769C586.527 154.891 584.615 154.452 582.463 154.452C580.311 154.452 578.399 154.891 576.728 155.769C575.085 156.618 573.684 157.893 572.522 159.592C571.39 161.291 570.526 163.387 569.931 165.879C569.336 168.371 569.039 171.26 569.039 174.545V177.561C569.039 180.818 569.336 183.707 569.931 186.227C570.526 188.719 571.404 190.829 572.565 192.557C573.726 194.256 575.142 195.544 576.813 196.422C578.484 197.3 580.396 197.739 582.548 197.739C584.7 197.739 586.612 197.3 588.283 196.422C589.954 195.544 591.355 194.256 592.488 192.557C593.621 190.829 594.485 188.719 595.08 186.227C595.674 183.707 595.972 180.818 595.972 177.561ZM667.042 174.672V199.184C666.079 200.345 664.592 201.605 662.581 202.964C660.57 204.295 657.979 205.442 654.807 206.405C651.635 207.368 647.798 207.85 643.295 207.85C639.302 207.85 635.663 207.198 632.377 205.896C629.092 204.564 626.26 202.625 623.881 200.076C621.531 197.527 619.718 194.412 618.444 190.73C617.169 187.02 616.532 182.786 616.532 178.028V174.163C616.532 169.405 617.141 165.171 618.359 161.461C619.605 157.751 621.375 154.622 623.669 152.073C625.963 149.524 628.696 147.584 631.868 146.253C635.04 144.922 638.565 144.256 642.445 144.256C647.826 144.256 652.244 145.134 655.699 146.89C659.154 148.618 661.788 151.025 663.601 154.112C665.441 157.17 666.574 160.682 666.999 164.647H654.637C654.326 162.551 653.731 160.725 652.853 159.167C651.975 157.609 650.715 156.392 649.072 155.514C647.458 154.636 645.362 154.197 642.785 154.197C640.661 154.197 638.764 154.636 637.093 155.514C635.45 156.363 634.063 157.624 632.93 159.294C631.797 160.965 630.933 163.033 630.338 165.497C629.744 167.96 629.446 170.821 629.446 174.078V178.028C629.446 181.257 629.758 184.117 630.381 186.609C631.004 189.073 631.924 191.155 633.142 192.854C634.388 194.525 635.918 195.785 637.73 196.635C639.543 197.484 641.652 197.909 644.06 197.909C646.07 197.909 647.741 197.739 649.072 197.399C650.432 197.06 651.522 196.649 652.343 196.167C653.193 195.658 653.844 195.176 654.297 194.723V183.763H642.658V174.672H667.042ZM685.818 145.148L698.732 173.355L711.646 145.148H725.537L705.189 184.485V207H692.275V184.485L671.884 145.148H685.818Z" fill="white"/>
</svg>
